<svg width="34" height="46" viewBox="0 0 34 46" fill="none" xmlns="http://www.w3.org/2000/svg">
<path d="M19.0832 23.521H14.9165C11.1882 23.5252 7.61381 25.0082 4.9775 27.6445C2.34119 30.2808 0.858244 33.8552 0.854004 37.5835V39.6668C0.855548 41.1858 1.45965 42.6422 2.53374 43.7163C3.60784 44.7903 5.06418 45.3945 6.58317 45.396H27.4165C28.9355 45.3945 30.3918 44.7903 31.4659 43.7163C32.54 42.6422 33.1441 41.1858 33.1457 39.6668V37.5835C33.1414 33.8552 31.6585 30.2808 29.0222 27.6445C26.3859 25.0082 22.8115 23.5252 19.0832 23.521Z" fill="#65AD49"/>
<path d="M17 22.4792C23.0406 22.4792 27.9375 17.5824 27.9375 11.5417C27.9375 5.50113 23.0406 0.604248 17 0.604248C10.9594 0.604248 6.0625 5.50113 6.0625 11.5417C6.0625 17.5824 10.9594 22.4792 17 22.4792Z" fill="#ADD370"/>
</svg>
